<svg width="1793" height="689" viewBox="0 0 1793 689" fill="none" xmlns="http://www.w3.org/2000/svg">
<path d="M736.92 479.499H727.754V459.093H736.92C738.615 462.974 741.402 466.074 745.283 468.393C749.163 470.668 753.557 471.805 758.463 471.805C762.522 471.805 765.822 470.958 768.365 469.263C770.907 467.523 772.178 465.271 772.178 462.505C772.178 460.32 771.465 458.625 770.037 457.421C768.61 456.216 766.157 455.302 762.678 454.678L747.892 452.068C741.068 450.909 736.05 448.812 732.838 445.779C729.627 442.746 728.021 438.643 728.021 433.469C728.021 427.804 730.073 423.322 734.177 420.021C738.325 416.72 743.989 415.07 751.17 415.07C755.541 415.07 759.422 415.717 762.812 417.01C766.201 418.304 768.588 419.999 769.97 422.095V416.743H779.27V436.078H769.97C767.785 431.752 765.176 428.607 762.143 426.645C759.154 424.682 755.452 423.701 751.036 423.701C747.29 423.701 744.301 424.526 742.071 426.176C739.841 427.827 738.726 430.034 738.726 432.8C738.726 434.985 739.529 436.725 741.135 438.018C742.785 439.267 745.394 440.204 748.962 440.828L761.875 443.036C769.68 444.374 775.122 446.404 778.2 449.124C781.277 451.845 782.816 455.815 782.816 461.033C782.816 467.055 780.586 471.917 776.126 475.619C771.665 479.321 765.778 481.172 758.463 481.172C754.27 481.172 750.412 480.525 746.888 479.231C743.365 477.893 740.042 475.886 736.92 473.21V479.499ZM791.112 447.987C791.112 438.62 794.39 430.793 800.947 424.504C807.504 418.215 815.688 415.07 825.501 415.07C835.358 415.07 843.543 418.215 850.055 424.504C856.611 430.793 859.89 438.62 859.89 447.987C859.89 457.354 856.611 465.204 850.055 471.537C843.543 477.871 835.358 481.038 825.501 481.038C815.688 481.038 807.504 477.871 800.947 471.537C794.39 465.204 791.112 457.354 791.112 447.987ZM803.356 447.987C803.356 454.633 805.474 460.164 809.712 464.579C813.949 468.95 819.212 471.136 825.501 471.136C831.879 471.136 837.165 468.973 841.357 464.646C845.595 460.275 847.713 454.722 847.713 447.987C847.713 441.252 845.595 435.721 841.357 431.395C837.165 427.024 831.879 424.838 825.501 424.838C819.212 424.838 813.949 427.046 809.712 431.462C805.474 435.833 803.356 441.341 803.356 447.987ZM902.441 479.499H867.517V470.066H878.222V426.176H867.517V416.743H878.222V406.44C878.222 397.296 879.738 390.739 882.771 386.77C885.849 382.8 890.822 380.815 897.691 380.815C898.717 380.815 899.586 380.837 900.3 380.882C901.058 380.882 901.883 380.927 902.775 381.016V389.78H899.564C895.951 389.78 893.453 390.717 892.071 392.59C890.688 394.464 889.997 398.634 889.997 405.101V416.743H902.775V426.176H889.997V470.066H902.441V479.499ZM928.333 457.287V459.361C928.333 464.401 928.757 467.456 929.604 468.527C930.496 469.553 932.503 470.066 935.625 470.066C936.116 470.066 937.566 469.865 939.974 469.463L940.643 469.396V479.365C939.305 479.588 937.856 479.744 936.294 479.834C934.733 479.967 932.905 480.034 930.808 480.034C925.679 480.034 922.133 479.165 920.171 477.425C918.208 475.641 917.227 472.496 917.227 467.991V426.176H905.853V416.743H917.227V393.326H928.333V416.743H940.643V426.176H928.333V457.287ZM1010.02 416.743V426.176H1000.86L1015.64 461.97L1029.02 426.176H1019.99V416.743H1047.29V426.176H1039.59L1019.32 481.172H1012.63L995.772 441.163L979.046 481.172H972.356L952.017 426.176H944.39V416.743H972.624V426.176H963.725L976.972 461.97L991.758 426.176H982.726V416.743H1010.02ZM1061.74 448.121C1061.74 454.811 1063.79 460.342 1067.9 464.713C1072 469.084 1077.11 471.27 1083.22 471.27C1089.33 471.27 1094.41 469.084 1098.47 464.713C1102.57 460.342 1104.63 454.811 1104.63 448.121C1104.63 441.43 1102.57 435.922 1098.47 431.596C1094.41 427.269 1089.33 425.106 1083.22 425.106C1076.93 425.106 1071.78 427.269 1067.76 431.596C1063.75 435.877 1061.74 441.386 1061.74 448.121ZM1115.6 470.066H1125.17V479.499H1103.76V471.136C1101.21 474.392 1098.07 476.867 1094.32 478.562C1090.58 480.213 1086.34 481.038 1081.61 481.038C1072.47 481.038 1064.8 477.893 1058.6 471.604C1052.44 465.271 1049.36 457.443 1049.36 448.121C1049.36 438.799 1052.46 430.971 1058.66 424.637C1064.86 418.259 1072.51 415.07 1081.61 415.07C1086.2 415.07 1090.33 415.895 1093.99 417.546C1097.69 419.196 1100.95 421.671 1103.76 424.972V416.743H1125.17V426.176H1115.6V470.066ZM1155.74 426.578C1158.06 422.563 1160.87 419.62 1164.17 417.746C1167.52 415.873 1171.64 414.936 1176.55 414.936C1176.82 414.936 1177.26 414.959 1177.89 415.003C1178.51 415.048 1178.98 415.07 1179.29 415.07V425.641H1176.01C1169.63 425.641 1164.66 427.336 1161.09 430.726C1157.52 434.071 1155.74 438.777 1155.74 444.843V470.066H1165.44V479.499H1134.4V470.066H1144.1V426.176H1134.4V416.743H1155.74V426.578ZM1195.41 442.367H1237.56C1236.67 436.613 1234.42 432.242 1230.81 429.254C1227.24 426.221 1222.47 424.704 1216.49 424.704C1210.51 424.704 1205.72 426.221 1202.11 429.254C1198.54 432.242 1196.31 436.613 1195.41 442.367ZM1248.27 460.833C1245.37 467.166 1241.09 472.14 1235.42 475.752C1229.8 479.365 1223.45 481.172 1216.36 481.172C1206.41 481.172 1198.38 478.094 1192.27 471.939C1186.2 465.784 1183.17 457.621 1183.17 447.452C1183.17 437.684 1186.2 429.856 1192.27 423.968C1198.34 418.036 1206.41 415.07 1216.49 415.07C1226.48 415.07 1234.53 418.259 1240.64 424.637C1246.75 431.016 1249.81 439.49 1249.81 450.061V451.533H1195.41C1195.86 457.421 1198.16 462.193 1202.31 465.851C1206.5 469.463 1211.74 471.27 1218.03 471.27C1222 471.27 1225.66 470.378 1229 468.594C1232.39 466.765 1235.16 464.178 1237.3 460.833H1248.27ZM1304.94 479.499H1295.77V459.093H1304.94C1306.63 462.974 1309.42 466.074 1313.3 468.393C1317.18 470.668 1321.57 471.805 1326.48 471.805C1330.54 471.805 1333.84 470.958 1336.38 469.263C1338.92 467.523 1340.2 465.271 1340.2 462.505C1340.2 460.32 1339.48 458.625 1338.05 457.421C1336.63 456.216 1334.17 455.302 1330.7 454.678L1315.91 452.068C1309.09 450.909 1304.07 448.812 1300.86 445.779C1297.64 442.746 1296.04 438.643 1296.04 433.469C1296.04 427.804 1298.09 423.322 1302.19 420.021C1306.34 416.72 1312.01 415.07 1319.19 415.07C1323.56 415.07 1327.44 415.717 1330.83 417.01C1334.22 418.304 1336.61 419.999 1337.99 422.095V416.743H1347.29V436.078H1337.99C1335.8 431.752 1333.19 428.607 1330.16 426.645C1327.17 424.682 1323.47 423.701 1319.05 423.701C1315.31 423.701 1312.32 424.526 1310.09 426.176C1307.86 427.827 1306.74 430.034 1306.74 432.8C1306.74 434.985 1307.55 436.725 1309.15 438.018C1310.8 439.267 1313.41 440.204 1316.98 440.828L1329.89 443.036C1337.7 444.374 1343.14 446.404 1346.22 449.124C1349.29 451.845 1350.83 455.815 1350.83 461.033C1350.83 467.055 1348.6 471.917 1344.14 475.619C1339.68 479.321 1333.8 481.172 1326.48 481.172C1322.29 481.172 1318.43 480.525 1314.91 479.231C1311.38 477.893 1308.06 475.886 1304.94 473.21V479.499ZM1371.37 442.367H1413.52C1412.63 436.613 1410.38 432.242 1406.77 429.254C1403.2 426.221 1398.42 424.704 1392.45 424.704C1386.47 424.704 1381.68 426.221 1378.06 429.254C1374.5 432.242 1372.27 436.613 1371.37 442.367ZM1424.23 460.833C1421.33 467.166 1417.05 472.14 1411.38 475.752C1405.76 479.365 1399.41 481.172 1392.31 481.172C1382.37 481.172 1374.34 478.094 1368.23 471.939C1362.16 465.784 1359.13 457.621 1359.13 447.452C1359.13 437.684 1362.16 429.856 1368.23 423.968C1374.29 418.036 1382.37 415.07 1392.45 415.07C1402.44 415.07 1410.49 418.259 1416.6 424.637C1422.71 431.016 1425.77 439.49 1425.77 450.061V451.533H1371.37C1371.82 457.421 1374.12 462.193 1378.26 465.851C1382.46 469.463 1387.7 471.27 1393.99 471.27C1397.96 471.27 1401.61 470.378 1404.96 468.594C1408.35 466.765 1411.11 464.178 1413.26 460.833H1424.23ZM1455.61 426.578C1457.92 422.563 1460.73 419.62 1464.04 417.746C1467.38 415.873 1471.51 414.936 1476.41 414.936C1476.68 414.936 1477.13 414.959 1477.75 415.003C1478.38 415.048 1478.84 415.07 1479.16 415.07V425.641H1475.88C1469.5 425.641 1464.53 427.336 1460.96 430.726C1457.39 434.071 1455.61 438.777 1455.61 444.843V470.066H1465.31V479.499H1434.26V470.066H1443.96V426.176H1434.26V416.743H1455.61V426.578ZM1509.73 481.172L1488.05 426.176H1480.96V416.743H1509.2V426.176H1499.96L1515.08 464.446L1530.4 426.176H1520.97V416.743H1548.33V426.176H1541.11L1519.43 481.172H1509.73ZM1556.63 401.154V388.509H1573.49V401.154H1556.63ZM1573.49 470.066H1584.46V479.499H1551.01V470.066H1561.85V426.176H1551.01V416.743H1573.49V470.066ZM1642.74 461.301L1649.03 467.456C1645.59 471.917 1641.47 475.329 1636.65 477.693C1631.83 480.012 1626.5 481.172 1620.66 481.172C1611.16 481.172 1603.6 478.206 1597.98 472.273C1592.36 466.297 1589.55 458.335 1589.55 448.389C1589.55 438.397 1592.27 430.347 1597.71 424.236C1603.2 418.125 1610.4 415.07 1619.32 415.07C1623.38 415.07 1626.97 415.695 1630.09 416.944C1633.21 418.192 1636.02 420.133 1638.52 422.764V416.743H1647.69V438.42H1639.32C1637.54 433.915 1635.07 430.525 1631.9 428.25C1628.73 425.976 1624.94 424.838 1620.52 424.838C1614.86 424.838 1610.29 427.001 1606.81 431.328C1603.37 435.61 1601.66 441.297 1601.66 448.389C1601.66 455.57 1603.51 461.19 1607.21 465.248C1610.91 469.263 1616.09 471.27 1622.73 471.27C1626.57 471.27 1630.14 470.445 1633.44 468.794C1636.78 467.144 1639.88 464.646 1642.74 461.301ZM1669.1 442.367H1711.25C1710.35 436.613 1708.1 432.242 1704.49 429.254C1700.92 426.221 1696.15 424.704 1690.17 424.704C1684.2 424.704 1679.4 426.221 1675.79 429.254C1672.22 432.242 1669.99 436.613 1669.1 442.367ZM1721.95 460.833C1719.05 467.166 1714.77 472.14 1709.11 475.752C1703.49 479.365 1697.13 481.172 1690.04 481.172C1680.09 481.172 1672.06 478.094 1665.95 471.939C1659.89 465.784 1656.85 457.621 1656.85 447.452C1656.85 437.684 1659.89 429.856 1665.95 423.968C1672.02 418.036 1680.09 415.07 1690.17 415.07C1700.16 415.07 1708.21 418.259 1714.32 424.637C1720.44 431.016 1723.49 439.49 1723.49 450.061V451.533H1669.1C1669.54 457.421 1671.84 462.193 1675.99 465.851C1680.18 469.463 1685.42 471.27 1691.71 471.27C1695.68 471.27 1699.34 470.378 1702.68 468.594C1706.07 466.765 1708.84 464.178 1710.98 460.833H1721.95ZM1742.36 479.499H1733.19V459.093H1742.36C1744.05 462.974 1746.84 466.074 1750.72 468.393C1754.6 470.668 1758.99 471.805 1763.9 471.805C1767.96 471.805 1771.26 470.958 1773.8 469.263C1776.34 467.523 1777.62 465.271 1777.62 462.505C1777.62 460.32 1776.9 458.625 1775.48 457.421C1774.05 456.216 1771.59 455.302 1768.12 454.678L1753.33 452.068C1746.51 450.909 1741.49 448.812 1738.28 445.779C1735.06 442.746 1733.46 438.643 1733.46 433.469C1733.46 427.804 1735.51 423.322 1739.61 420.021C1743.76 416.72 1749.43 415.07 1756.61 415.07C1760.98 415.07 1764.86 415.717 1768.25 417.01C1771.64 418.304 1774.03 419.999 1775.41 422.095V416.743H1784.71V436.078H1775.41C1773.22 431.752 1770.61 428.607 1767.58 426.645C1764.59 424.682 1760.89 423.701 1756.47 423.701C1752.73 423.701 1749.74 424.526 1747.51 426.176C1745.28 427.827 1744.16 430.034 1744.16 432.8C1744.16 434.985 1744.97 436.725 1746.57 438.018C1748.22 439.267 1750.83 440.204 1754.4 440.828L1767.31 443.036C1775.12 444.374 1780.56 446.404 1783.64 449.124C1786.72 451.845 1788.25 455.815 1788.25 461.033C1788.25 467.055 1786.02 471.917 1781.56 475.619C1777.1 479.321 1771.22 481.172 1763.9 481.172C1759.71 481.172 1755.85 480.525 1752.33 479.231C1748.8 477.893 1745.48 475.886 1742.36 473.21V479.499Z" fill="#F3B019"/>
<path d="M581.372 207.065C563.188 157.89 533.506 113.255 494.256 78.401C456.329 44.7236 410.421 20.0207 361.051 8.18069C309.786 -4.10068 255.268 -2.69249 204.968 13.3441C156.99 28.645 113.488 56.4164 78.0502 92.1186C46.9274 123.47 21.5047 160.931 5.42575 202.182C3.63531 206.763 1.99172 211.401 0.495025 216.095C-1.51921 222.401 2.85184 230.107 9.28622 231.606C12.5037 232.421 15.9111 231.96 18.7975 230.32C21.6838 228.679 23.8263 225.985 24.7778 222.8C26.2745 218.129 27.9064 213.491 29.6735 208.886C30.0861 207.835 30.4988 206.784 30.9254 205.748C31.1492 205.194 32.555 201.712 31.7437 203.751C30.9324 205.79 32.4431 202.168 32.6249 201.733C33.1494 200.556 33.674 199.372 34.2125 198.23C38.3635 189.193 42.9739 180.375 48.0254 171.811C53.2942 162.857 58.9942 154.179 65.1255 145.777C66.5872 143.766 68.084 141.777 69.5877 139.787C71.3571 137.447 68.3147 141.356 69.5106 139.892C69.9722 139.317 70.4198 138.722 70.8744 138.14C71.7976 136.978 72.7278 135.815 73.672 134.638C77.0803 130.434 80.589 126.317 84.1978 122.286C91.802 113.798 99.8393 105.709 108.278 98.0526C112.474 94.2554 116.764 90.568 121.147 86.9903C122.37 85.9954 123.608 85.0006 124.853 84.0198L126.35 82.8428C126.035 83.088 124.252 84.4541 126.063 83.067C128.474 81.2314 130.91 79.4239 133.372 77.6444C142.96 70.7289 152.946 64.3846 163.278 58.6443C168.752 55.6038 174.319 52.7453 179.979 50.0691C182.529 48.8594 185.094 47.6917 187.672 46.5661L189.973 45.5713C189.575 45.7394 187.567 46.5661 189.742 45.6764C191.295 45.0458 192.848 44.4083 194.408 43.7988C206.162 39.1719 218.22 35.3587 230.496 32.3861C236.632 30.9102 242.81 29.6422 249.03 28.5819C250.606 28.3157 252.182 28.0635 253.758 27.8253C254.506 27.7132 259.213 27.1247 256.24 27.454C259.639 27.0406 263.039 26.6413 266.452 26.326C278.727 25.1996 291.063 24.8884 303.379 25.3942C309.608 25.6464 315.824 26.1135 322.025 26.7954C323.326 26.9355 324.627 27.0897 325.921 27.2438L327.865 27.489C331.068 27.8883 325.9 27.1878 327.921 27.489C330.984 27.9584 334.047 28.4068 337.104 28.9392C348.961 31.0192 360.675 33.8435 372.178 37.3954C377.773 39.1188 383.303 41.0104 388.768 43.0702C391.5 44.1024 394.218 45.1719 396.922 46.2789L398.72 47.0215C396.174 45.9846 397.867 46.6572 398.405 46.8954C400.042 47.596 401.678 48.2966 403.301 49.0602C414.113 53.9478 424.623 59.4807 434.773 65.6292C439.935 68.7539 444.998 72.0233 449.964 75.4375C452.384 77.1096 454.778 78.8167 457.147 80.5588C458.336 81.4276 459.511 82.3103 460.686 83.2001C461.21 83.5924 461.728 83.9917 462.245 84.3911C459.791 82.5275 462.462 84.5592 462.798 84.8254C481.91 99.8775 499.151 117.17 514.154 136.333C514.399 136.641 515.7 138.344 514.707 137.034C513.532 135.492 515.518 138.112 515.539 138.147C516.343 139.212 517.14 140.291 517.938 141.363C519.915 144.067 521.85 146.804 523.743 149.574C527.17 154.576 530.433 159.681 533.534 164.889C540.024 175.718 545.843 186.937 550.956 198.482C551.515 199.744 552.061 201.012 552.606 202.28C551.543 199.8 552.487 201.985 552.746 202.616C553.075 203.415 553.404 204.213 553.725 205.019C554.893 207.919 556.012 210.834 557.103 213.769C559.383 219.935 565.727 224.797 572.588 222.576C578.617 220.621 583.834 213.685 581.379 207.065H581.372Z" fill="#204B24"/>
<path d="M498.302 209.749C485.331 174.781 464.435 142.999 436.552 118.155C409.51 94.0621 376.748 76.3116 341.494 67.8644C305.058 59.1295 266.262 60.0345 230.49 71.3724C196.23 82.2471 165.142 102.011 139.829 127.5C117.498 149.951 99.4156 176.837 87.907 206.423C86.6679 209.608 85.541 212.822 84.4979 216.07C82.4748 222.384 86.8571 230.102 93.2974 231.603C96.5161 232.422 99.9257 231.963 102.815 230.322C105.704 228.682 107.849 225.986 108.803 222.798C109.848 219.552 110.985 216.337 112.212 213.151C112.485 212.45 112.765 211.748 113.045 211.047C113.696 209.433 113.745 209.686 112.933 211.257C113.682 209.77 114.263 208.184 114.956 206.669C117.805 200.431 120.969 194.342 124.435 188.427C128.089 182.159 132.056 176.079 136.335 170.186C137.375 168.588 138.511 167.055 139.738 165.597C138.337 167.105 139.087 166.439 139.941 165.351C140.585 164.538 141.233 163.726 141.887 162.917C144.253 159.994 146.687 157.129 149.188 154.322C154.52 148.345 160.158 142.65 166.08 137.259C168.992 134.621 171.967 132.049 175.005 129.542C175.74 128.939 176.482 128.342 177.224 127.753C177.581 127.465 179.857 125.704 178.575 126.679C177.294 127.655 179.976 125.648 180.347 125.353L183.056 123.368C189.76 118.535 196.739 114.098 203.959 110.08C207.557 108.078 211.216 106.188 214.935 104.411C216.881 103.475 218.846 102.575 220.83 101.709C221.803 101.282 223.567 100.587 221.53 101.408C222.615 100.973 223.7 100.517 224.792 100.089C232.891 96.8933 241.196 94.2493 249.65 92.1748C254.074 91.0943 258.534 90.1705 263.028 89.4035C264.078 89.221 265.128 89.0526 266.185 88.8913C267.242 88.7299 269.349 88.4563 267.074 88.7439C269.398 88.4493 271.729 88.1827 274.074 87.9652C282.66 87.1598 291.289 86.9254 299.906 87.2636C304.171 87.432 308.425 87.7407 312.667 88.1897C313.64 88.2879 314.613 88.4002 315.593 88.5194L317.049 88.7019C318.554 88.8773 316.167 88.5615 316.132 88.5756C317.532 88.0844 320.927 89.2772 322.433 89.5578C330.769 91.0053 339.006 92.9784 347.095 95.4653C350.973 96.658 354.816 97.9676 358.624 99.3942C360.445 100.072 362.258 100.774 364.064 101.499L365.87 102.243C365.779 102.201 363.77 101.331 365.1 101.92C366.136 102.383 367.2 102.832 368.215 103.323C375.775 106.742 383.124 110.61 390.224 114.907C393.71 117.011 397.133 119.221 400.493 121.537C402.244 122.739 403.975 123.969 405.688 125.227C406.479 125.802 407.27 126.392 408.054 126.981L409.223 127.872C408.425 127.269 407.9 126.827 409.006 127.704C422.196 138.195 434.146 150.162 444.624 163.373C446.129 165.274 443.644 162.047 445.1 163.99C445.702 164.797 446.304 165.597 446.899 166.404C448.299 168.275 449.657 170.188 450.973 172.143C453.353 175.623 455.628 179.168 457.798 182.779C462.285 190.244 466.313 197.976 469.86 205.932C470.147 206.556 470.42 207.195 470.7 207.819C470.791 208.03 471.484 209.622 470.875 208.219C470.266 206.816 471.456 209.622 471.631 210.064C472.48 212.164 473.295 214.269 474.074 216.379C476.363 222.553 482.705 227.422 489.573 225.198C495.607 223.24 500.836 216.288 498.379 209.664L498.302 209.749Z" fill="#204B24"/>
<path d="M418.281 216.285C397.792 161.581 333.182 138.942 279.085 142.329C261.252 143.44 243.639 146.87 226.691 152.533C212.625 157.253 199.282 163.152 187.465 172.171C163.313 190.553 145.591 215.619 134.125 243.595C121.005 275.618 117.636 312.467 128.472 345.647C130.517 351.917 137.291 356.637 143.98 354.463C150.228 352.443 154.984 345.654 152.792 338.935C151.704 335.629 150.758 332.289 149.955 328.913C149.563 327.23 149.206 325.546 148.883 323.849C148.722 323.008 148.575 322.159 148.435 321.31C148.323 320.651 147.791 316.836 148.204 320.083C147.348 313.293 147.029 306.445 147.251 299.604C147.354 296.195 147.588 292.792 147.952 289.392C148.022 288.691 148.113 288.039 148.183 287.359C148.554 283.915 147.714 290.066 148.281 286.657C148.589 284.799 148.876 282.947 149.227 281.103C150.535 274.23 152.304 267.454 154.522 260.82C155.545 257.753 156.656 254.714 157.856 251.703C158.116 251.057 159.026 248.897 157.947 251.429C158.277 250.651 158.648 249.872 158.963 249.101C159.713 247.403 160.497 245.713 161.31 244.044C164.296 237.873 167.662 231.893 171.389 226.139C173.084 223.516 174.854 220.944 176.699 218.424C177.28 217.639 177.869 216.86 178.457 216.075C178.205 216.404 176.832 218.116 178.268 216.327C179.48 214.819 180.691 213.318 181.945 211.846C186.014 207.068 190.392 202.563 195.051 198.359C196.186 197.342 197.341 196.339 198.511 195.364C199.134 194.838 202.777 191.696 200.185 193.961C202.696 191.915 205.353 190.056 208.135 188.4C210.426 186.941 212.772 185.595 215.14 184.297C216.251 183.708 217.379 183.14 218.523 182.593C219.273 182.235 220.029 181.891 220.786 181.548C223.237 180.405 217.501 182.817 221.269 181.351C229.156 178.22 237.207 175.519 245.386 173.258C249.295 172.215 253.231 171.28 257.196 170.453C259.138 170.06 261.083 169.698 263.031 169.366C263.997 169.197 264.957 169.043 265.923 168.896C266.47 168.812 270.547 168.279 267.752 168.615C275.188 167.691 282.673 167.223 290.166 167.212C293.762 167.212 297.351 167.329 300.932 167.563C302.691 167.675 304.435 167.816 306.2 167.984L308.301 168.201C308.652 168.236 312.553 168.741 310.739 168.482C308.715 168.194 312.049 168.692 312.14 168.699L314.157 169.029C315.824 169.309 317.485 169.618 319.138 169.955C322.696 170.679 326.229 171.528 329.736 172.501C332.832 173.37 335.897 174.338 338.932 175.404C340.268 175.872 341.599 176.365 342.925 176.884C343.626 177.164 344.375 177.466 345.104 177.747C347.772 178.799 343.128 176.835 345.517 177.929C351.794 180.727 357.851 183.996 363.638 187.706C365.081 188.652 366.496 189.627 367.897 190.63C368.359 190.967 368.807 191.331 369.298 191.64C371.399 193.12 367.266 189.943 369.76 191.984C372.253 194.025 374.614 196.044 376.905 198.247C379.02 200.285 381.04 202.42 382.964 204.65C383.475 205.246 383.986 205.849 384.483 206.459C385.303 207.462 385.422 208.963 384.442 206.354C384.911 207.595 386.389 209.012 387.131 210.113C388.682 212.412 390.111 214.79 391.411 217.239C392.112 218.55 392.763 219.883 393.372 221.237C393.569 221.664 393.744 222.169 393.975 222.59C392.112 219.231 393.702 222.022 394.059 222.976C396.37 229.141 402.682 234.022 409.567 231.792C415.591 229.842 420.852 222.885 418.372 216.264L418.281 216.285Z" fill="#F3B019"/>
<path d="M140.635 354.845H405.277C417.453 354.845 429.684 355.194 441.853 354.845H442.365C448.972 354.845 455.298 349.167 454.989 342.502C454.681 335.836 449.448 330.158 442.365 330.158H177.723C165.547 330.158 153.316 329.802 141.147 330.158H140.635C134.028 330.158 127.702 335.836 128.011 342.502C128.319 349.167 133.559 354.845 140.635 354.845Z" fill="#F3B019"/>
<path d="M96.3913 207H12.6087C6.0158 207 -0.297124 212.75 0.0108235 219.5C0.318771 226.25 5.54688 232 12.6087 232H96.3913C102.984 232 109.297 226.25 108.989 219.5C108.681 212.75 103.46 207 96.3913 207H12.6087C6.0158 207 -0.297124 212.75 0.0108235 219.5C0.318771 226.25 5.54688 232 12.6087 232H96.3913C102.984 232 109.297 226.25 108.989 219.5C108.681 212.75 103.46 207 96.3913 207Z" fill="#204B24"/>
<path d="M489.391 209H405.609C399.016 209 392.703 214.75 393.011 221.5C393.319 228.25 398.547 234 405.609 234H489.391C495.984 234 502.297 228.25 501.989 221.5C501.681 214.75 496.453 209 489.391 209H405.609C399.016 209 392.703 214.75 393.011 221.5C393.319 228.25 398.547 234 405.609 234H489.391C495.984 234 502.297 228.25 501.989 221.5C501.681 214.75 496.453 209 489.391 209Z" fill="#F3B019"/>
<path d="M9.6487 481.955C27.8321 531.13 57.5132 575.765 96.7614 610.619C134.681 644.297 180.594 669 229.962 680.819C281.226 693.101 335.741 691.693 386.032 675.656C434.015 660.355 477.516 632.583 512.953 596.888C544.074 565.529 569.496 528.068 585.574 486.817C587.36 482.235 589.004 477.597 590.505 472.903C592.519 466.598 588.148 458.891 581.707 457.392C578.491 456.579 575.085 457.041 572.201 458.682C569.316 460.322 567.175 463.015 566.223 466.198C564.717 470.869 563.074 475.507 561.293 480.112C560.887 481.163 560.467 482.214 560.048 483.251C559.824 483.804 558.418 487.286 559.229 485.255C560.041 483.223 558.53 486.831 558.341 487.265C557.824 488.449 557.292 489.626 556.761 490.768C552.611 499.806 548.001 508.624 542.948 517.188C537.68 526.141 531.98 534.82 525.849 543.222C524.387 545.233 522.891 547.222 521.387 549.212C519.61 551.559 522.66 547.643 521.464 549.107C520.995 549.682 520.555 550.277 520.065 550.859C519.149 552.022 518.219 553.185 517.268 554.362C513.864 558.565 510.367 562.682 506.777 566.713C499.173 575.201 491.136 583.29 482.698 590.947C478.502 594.744 474.212 598.431 469.83 602.009C468.608 603.009 467.373 603.999 466.123 604.98L464.627 606.157C464.941 605.911 466.725 604.545 464.913 605.932C462.498 607.777 460.062 609.587 457.605 611.362C448.017 618.275 438.032 624.617 427.7 630.355C422.226 633.396 416.659 636.254 410.999 638.931C408.449 640.145 405.885 641.313 403.306 642.434L401.013 643.428C401.411 643.26 403.418 642.434 401.243 643.323C399.691 643.963 398.136 644.591 396.579 645.208C384.823 649.828 372.766 653.639 360.491 656.614C354.36 658.09 348.182 659.358 341.958 660.418C340.387 660.684 338.811 660.936 337.23 661.175C336.482 661.287 331.776 661.875 334.741 661.546C331.342 661.959 327.95 662.358 324.537 662.674C312.262 663.8 299.926 664.111 287.611 663.606C281.377 663.353 275.162 662.886 268.966 662.204C267.665 662.064 266.366 661.915 265.07 661.756L263.119 661.511C259.923 661.111 265.084 661.812 263.07 661.511C260.007 661.041 256.944 660.586 253.887 660.054C242.012 657.984 230.279 655.164 218.758 651.611C213.163 649.888 207.634 647.996 202.169 645.937C199.437 644.904 196.719 643.835 194.015 642.728L192.211 641.985C194.763 643.022 193.071 642.349 192.532 642.111C190.896 641.411 189.259 640.71 187.637 639.953C176.826 635.061 166.317 629.525 156.165 623.377C151.004 620.253 145.941 616.983 140.975 613.569C138.555 611.892 136.161 610.185 133.793 608.448C132.604 607.579 131.424 606.698 130.254 605.806L128.687 604.622C131.149 606.479 128.477 604.447 128.135 604.181C109.067 589.131 91.8637 571.851 76.8924 552.708C76.6476 552.4 75.347 550.697 76.3401 552.008C77.515 553.549 75.5287 550.929 75.5077 550.894C74.6964 549.829 73.8969 548.757 73.1089 547.678C71.1321 544.974 69.1971 542.239 67.3042 539.474C63.8773 534.467 60.6136 529.36 57.5131 524.152C51.0028 513.325 45.166 502.106 40.036 490.558C39.4765 489.297 38.9381 488.029 38.3856 486.761C39.4556 489.241 38.5114 487.055 38.2526 486.432C37.9239 485.626 37.5953 484.827 37.2736 484.022C36.1033 481.126 34.9773 478.209 33.8956 475.271C31.6157 469.106 25.2725 464.244 18.4117 466.465C12.3832 468.419 7.16593 475.355 9.6207 481.976L9.6487 481.955Z" fill="#204B24"/>
<path d="M92.5929 479.256C105.568 514.217 126.469 546 154.359 570.844C181.408 594.937 214.178 612.688 249.44 621.136C285.851 629.871 324.692 628.965 360.466 617.627C394.741 606.753 425.831 586.988 451.15 561.499C473.494 539.047 491.58 512.162 503.092 482.575C504.324 479.399 505.461 476.183 506.502 472.928C508.526 466.613 504.142 458.895 497.7 457.394C494.48 456.578 491.07 457.04 488.181 458.683C485.292 460.327 483.149 463.024 482.198 466.213C481.157 469.459 480.018 472.675 478.781 475.86C478.514 476.562 478.234 477.263 477.954 477.965C477.303 479.586 477.254 479.326 478.059 477.755C477.317 479.242 476.736 480.828 476.043 482.343C473.193 488.581 470.029 494.669 466.562 500.585C462.897 506.853 458.93 512.933 454.658 518.827C453.62 520.428 452.481 521.96 451.248 523.415C452.649 521.907 451.907 522.573 451.052 523.661C450.408 524.475 449.759 525.286 449.106 526.095C446.739 529.019 444.304 531.884 441.802 534.69C436.469 540.668 430.83 546.363 424.906 551.753C421.993 554.401 419.018 556.973 415.979 559.471C415.236 560.074 414.501 560.671 413.759 561.26C413.402 561.548 411.126 563.309 412.407 562.334C413.689 561.358 411.007 563.365 410.636 563.66L407.926 565.645C401.22 570.477 394.238 574.914 387.018 578.934C383.419 580.936 379.759 582.825 376.039 584.603C374.087 585.538 372.122 586.439 370.143 587.304C369.17 587.732 367.405 588.427 369.443 587.606C368.35 588.041 367.272 588.497 366.18 588.925C358.076 592.121 349.767 594.765 341.308 596.839C336.883 597.919 332.422 598.855 327.927 599.645C326.877 599.828 325.826 599.996 324.776 600.157C323.726 600.319 321.611 600.592 323.887 600.305C321.555 600.599 319.23 600.866 316.885 601.084C308.297 601.889 299.666 602.123 291.047 601.785C286.785 601.617 282.53 601.308 278.282 600.859C277.309 600.761 276.328 600.649 275.355 600.529L273.899 600.347C272.393 600.171 274.781 600.487 274.816 600.473C273.415 600.964 270.012 599.772 268.514 599.491C260.178 598.043 251.941 596.069 243.853 593.583C239.964 592.391 236.12 591.081 232.32 589.654C230.5 588.953 228.679 588.251 226.879 587.549L225.164 586.644C225.255 586.687 227.265 587.556 225.934 586.967C224.898 586.504 223.834 586.055 222.818 585.564C215.255 582.15 207.904 578.285 200.804 573.987C197.317 571.878 193.893 569.665 190.532 567.35C188.781 566.153 187.047 564.923 185.329 563.66C184.538 563.084 183.753 562.495 182.969 561.906C182.577 561.611 182.192 561.309 181.793 561.015C182.598 561.618 183.123 562.06 182.017 561.183C168.822 550.694 156.869 538.726 146.39 525.513C144.885 523.612 147.371 526.839 145.914 524.896C145.312 524.096 144.71 523.289 144.115 522.482C142.714 520.588 141.356 518.675 140.039 516.743C137.659 513.263 135.383 509.718 133.212 506.107C128.725 498.641 124.694 490.909 121.141 482.954C120.86 482.329 120.587 481.691 120.307 481.066C120.216 480.856 119.516 479.263 120.125 480.666C120.734 482.069 119.551 479.263 119.369 478.821C118.529 476.721 117.716 474.616 116.932 472.507C114.643 466.332 108.299 461.456 101.423 463.68C95.3938 465.638 90.1632 472.591 92.6209 479.221L92.5929 479.256Z" fill="#204B24"/>
<path d="M494.607 482H578.392C584.985 482 591.297 476.25 590.989 469.5C590.681 462.75 585.453 457 578.392 457H494.607C488.022 457 481.709 462.75 482.01 469.5C482.311 476.25 487.546 482 494.607 482H578.392C584.985 482 591.297 476.25 590.989 469.5C590.681 462.75 585.453 457 578.392 457H494.607C488.022 457 481.709 462.75 482.01 469.5C482.311 476.25 487.546 482 494.607 482Z" fill="#204B24"/>
<path d="M101.609 482H185.391C191.984 482 198.297 476.25 197.989 469.5C197.681 462.75 192.453 457 185.391 457H101.609C95.0158 457 88.7029 462.75 89.0108 469.5C89.3188 476.25 94.5399 482 101.609 482H185.391C191.984 482 198.297 476.25 197.989 469.5C197.681 462.75 192.453 457 185.391 457H101.609C95.0158 457 88.7029 462.75 89.0108 469.5C89.3188 476.25 94.5399 482 101.609 482Z" fill="#F3B019"/>
<path d="M176.647 473.15C196.377 525.766 258.27 547.741 310.414 544.729C327.743 543.715 344.863 540.425 361.335 534.944C375.094 530.366 388.133 524.627 399.747 515.827C423.054 498.123 440.158 473.947 451.234 446.988C463.953 416.032 467.228 380.407 456.752 348.318C454.713 342.077 447.959 337.373 441.289 339.533C435.052 341.553 430.317 348.311 432.503 355.007C434.64 361.562 436.206 368.29 437.182 375.116C436.722 371.915 437.357 377.066 437.427 377.877C437.562 379.4 437.667 380.929 437.741 382.462C437.918 386.031 437.941 389.605 437.811 393.184C437.709 396.245 437.494 399.297 437.168 402.34C437.085 403.186 436.973 404.031 436.882 404.877C436.659 406.974 437.371 401.788 436.847 405.073C436.582 406.75 436.316 408.428 436.002 410.098C434.751 416.782 433.043 423.372 430.89 429.822C429.879 432.879 428.771 435.908 427.565 438.909C427.307 439.552 426.378 441.704 427.474 439.181C427.202 439.796 426.937 440.418 426.664 441.033C425.845 442.897 424.993 444.728 424.108 446.527C421.255 452.364 418.051 458.022 414.512 463.47C412.822 466.079 411.052 468.642 409.204 471.158C408.82 471.682 408.422 472.199 408.038 472.724C409.7 470.48 408.359 472.304 407.926 472.856C406.829 474.254 405.705 475.596 404.567 476.938C400.505 481.692 396.122 486.161 391.45 490.316C390.431 491.225 389.355 492.119 388.343 492.993C387.763 493.475 387.176 493.944 386.596 494.391C384.864 495.789 386.764 494.314 387.022 494.083C384.636 496.031 382.11 497.802 379.466 499.381C377.182 500.842 374.842 502.212 372.481 503.47C371.252 504.122 370.005 504.745 368.738 505.336L367.229 506.035C364.533 507.293 370.721 504.637 366.754 506.231C358.923 509.358 350.915 512.023 342.771 514.213C339.27 515.145 335.745 515.967 332.197 516.68C330.269 517.072 328.335 517.433 326.393 517.764C325.436 517.924 324.48 518.078 323.516 518.225L321.791 518.483L322.28 518.421C315.071 519.313 307.816 519.779 300.552 519.818C296.976 519.818 293.407 519.697 289.845 519.455C288.276 519.353 286.705 519.224 285.131 519.071C284.272 518.987 283.406 518.903 282.547 518.805C281.848 518.721 278.713 518.281 281.8 518.735C275.2 517.795 268.668 516.429 262.244 514.646C259.45 513.868 256.706 513.004 254.01 512.053C252.529 511.536 251.058 510.991 249.596 510.418L247.864 509.719C245.203 508.663 249.833 510.627 247.459 509.544C241.482 506.879 235.712 503.774 230.194 500.255C228.755 499.318 227.338 498.354 225.948 497.347C225.487 497.019 225.04 496.648 224.551 496.348C222.337 494.775 226.36 497.844 224.425 496.271C221.981 494.279 219.585 492.238 217.308 490.05C215.199 488.023 213.192 485.899 211.288 483.676C210.862 483.187 210.443 482.684 210.031 482.18C209.172 481.132 209.179 479.755 210.073 482.285C209.668 481.132 208.299 479.867 207.621 478.86C206.069 476.581 204.644 474.217 203.354 471.78C202.718 470.578 202.118 469.369 201.559 468.131C201.363 467.719 201.196 467.195 200.958 466.796C202.851 470.047 201.245 467.405 200.875 466.412C198.57 460.268 192.277 455.404 185.412 457.626C179.405 459.569 174.153 466.503 176.626 473.101L176.647 473.15Z" fill="#F3B019"/>
<path d="M65 356C82.1208 356 96 341.897 96 324.5C96 307.103 82.1208 293 65 293C47.8792 293 34 307.103 34 324.5C34 341.897 47.8792 356 65 356Z" fill="#F3B019"/>
<path d="M521 377C538.673 377 553 362.897 553 345.5C553 328.103 538.673 314 521 314C503.327 314 489 328.103 489 345.5C489 362.897 503.327 377 521 377Z" fill="#F3B019"/>
<path d="M851.314 328.208V345H833.892V291.895H851.314C854.322 303.929 859.78 313.34 867.686 320.127C875.662 326.843 885.178 330.202 896.233 330.202C904.559 330.202 911.521 327.613 917.118 322.435C922.785 317.258 925.619 310.821 925.619 303.124C925.619 296.408 923.345 290.985 918.797 286.857C914.249 282.659 906.658 279.126 896.023 276.257L879.86 271.954C864.468 267.756 853.273 262.263 846.276 255.477C839.279 248.62 835.781 239.769 835.781 228.924C835.781 216.4 840.049 206.325 848.585 198.698C857.121 191.072 868.421 187.258 882.484 187.258C891.02 187.258 898.437 188.658 904.734 191.456C911.101 194.185 916.278 198.278 920.267 203.736V190.197H935.275V234.696H920.267C917.608 225.041 912.885 217.624 906.098 212.447C899.381 207.269 891.055 204.68 881.12 204.68C873.213 204.68 866.741 206.814 861.704 211.082C856.736 215.28 854.252 220.738 854.252 227.455C854.252 233.682 856.281 238.58 860.339 242.148C864.398 245.716 871.989 248.9 883.114 251.698L895.603 254.952C913.445 259.36 926.354 265.307 934.33 272.794C942.306 280.21 946.294 289.936 946.294 301.97C946.294 315.264 941.467 326.284 931.811 335.03C922.156 343.706 909.911 348.044 895.078 348.044C886.682 348.044 878.461 346.259 870.415 342.691C862.438 339.053 856.071 334.225 851.314 328.208ZM1002.65 329.572H1019.55V345H965.396V329.572H982.188V205.73H965.396V190.197H1019.55V205.73H1002.65V329.572ZM1031.3 345V329.572H1048.1V205.73H1031.3V190.197H1088.08V205.73H1068.56V329.572H1120.3V299.241H1138.57V345H1031.3ZM1185.69 329.572H1202.59V345H1148.43V329.572H1165.22V205.73H1148.43V190.197H1202.59V205.73H1185.69V329.572ZM1361.17 296.198C1357.18 312.57 1349.27 325.304 1337.45 334.4C1325.69 343.496 1311.17 348.044 1293.89 348.044C1271.01 348.044 1252.16 340.487 1237.32 325.374C1222.56 310.191 1215.18 290.95 1215.18 267.651C1215.18 244.632 1222.49 225.496 1237.11 210.243C1251.81 194.92 1270.24 187.258 1292.42 187.258C1302.29 187.258 1311.21 188.763 1319.19 191.771C1327.23 194.71 1333.84 199.013 1339.02 204.68V190.197H1355.81V238.16H1339.86C1336.36 227.175 1330.77 218.954 1323.07 213.496C1315.44 208.039 1305.65 205.31 1293.68 205.31C1276.26 205.31 1262.34 210.977 1251.91 222.312C1241.49 233.647 1236.27 248.76 1236.27 267.651C1236.27 286.122 1241.7 301.13 1252.54 312.675C1263.39 324.22 1277.45 329.992 1294.73 329.992C1306.28 329.992 1315.93 327.193 1323.7 321.596C1331.54 315.998 1337.66 307.532 1342.07 296.198H1361.17ZM1377.12 267.651C1377.12 244.842 1384.71 225.74 1399.89 210.348C1415.08 194.955 1434.04 187.258 1456.78 187.258C1465.8 187.258 1474.2 188.483 1481.97 190.932C1489.8 193.381 1497.11 197.089 1503.9 202.057C1514.47 209.683 1522.58 219.164 1528.25 230.498C1533.92 241.833 1536.75 254.217 1536.75 267.651C1536.75 290.32 1529.12 309.387 1513.87 324.849C1498.62 340.312 1479.59 348.044 1456.78 348.044C1434.04 348.044 1415.08 340.347 1399.89 324.954C1384.71 309.561 1377.12 290.46 1377.12 267.651ZM1397.9 267.651C1397.9 285.703 1403.5 300.606 1414.69 312.36C1425.96 324.115 1439.98 329.992 1456.78 329.992C1473.64 329.992 1487.67 324.115 1498.86 312.36C1510.13 300.606 1515.76 285.703 1515.76 267.651C1515.76 249.529 1510.13 234.626 1498.86 222.942C1487.67 211.187 1473.64 205.31 1456.78 205.31C1439.98 205.31 1425.96 211.187 1414.69 222.942C1403.5 234.626 1397.9 249.529 1397.9 267.651ZM1587.44 329.572H1604.34V345H1550.92V329.572H1568.24V205.73H1550.92V190.197H1589.54L1654.92 302.915V205.73H1637.92V190.197H1691.45V205.73H1674.03V348.044H1658.6L1587.44 225.88V329.572Z" fill="#204B24"/>
</svg>
